/* XPM */
static char *df67984c176343ee800a3524b3eb78a6NHx0tlkaCltnUi4c[] = {
/* columns rows colors chars-per-pixel */
"32 32 191 2 ",
"   c None",
".  c #8E6324",
"X  c #84632D",
"o  c #8B642A",
"O  c #926524",
"+  c #966C26",
"@  c #9A6C21",
"#  c #936728",
"$  c #956A29",
"%  c #996E2A",
"&  c #9F7225",
"*  c #95772F",
"=  c #9E732C",
"-  c #9A7B2F",
";  c #836B36",
":  c #886E34",
">  c #856F3B",
",  c #877037",
"<  c #877038",
"1  c #8D7439",
"2  c #9E7531",
"3  c #9F7A36",
"4  c #97783B",
"5  c #A17324",
"6  c #A67A25",
"7  c #AC7E24",
"8  c #A2772D",
"9  c #A57B2B",
"0  c #A87E2F",
"q  c #A37A35",
"w  c #A97F30",
"e  c #A67E39",
"r  c #8A7541",
"t  c #8D7945",
"y  c #8C7C49",
"u  c #847344",
"i  c #9F802C",
"p  c #A88027",
"a  c #AC832A",
"s  c #AE8B2B",
"d  c #A6852D",
"f  c #BA8A23",
"g  c #B38728",
"h  c #B48A2D",
"j  c #BA8D29",
"k  c #BD9429",
"l  c #AB8334",
"z  c #A6823C",
"x  c #AB843B",
"c  c #B58C31",
"v  c #B88F32",
"b  c #B2863C",
"n  c #BA9031",
"m  c #B69039",
"M  c #B9933D",
"N  c #B49232",
"B  c #C59622",
"V  c #C2952A",
"C  c #C89C2A",
"Z  c #C49B2A",
"A  c #C29737",
"S  c #C39A3D",
"D  c #C39936",
"F  c #CFA32C",
"G  c #8F804C",
"H  c #90814D",
"J  c #98834A",
"K  c #9F8A4F",
"L  c #9C8B53",
"P  c #9D8D5B",
"I  c #AB8740",
"U  c #AE8A43",
"Y  c #A68B4B",
"T  c #B38D45",
"R  c #B59145",
"E  c #BC9641",
"W  c #BB9847",
"Q  c #B5934B",
"!  c #BB954B",
"~  c #BA9A4E",
"^  c #A3955A",
"/  c #A89358",
"(  c #A6995D",
")  c #A69553",
"_  c #BD9D53",
"`  c #BEA156",
"'  c #BFA158",
"]  c #AEA163",
"[  c #B2A564",
"{  c #B4A867",
"}  c #B7AC6A",
"|  c #B9AB6B",
" . c #BEB26E",
".. c #C49C42",
"X. c #C59D4B",
"o. c #C39E50",
"O. c #C5A246",
"+. c #CFA644",
"@. c #CFAA44",
"#. c #C6A24F",
"$. c #CEAC4C",
"%. c #CAA54B",
"&. c #D2AD4A",
"*. c #D7B344",
"=. c #D5B04A",
"-. c #DCB94C",
";. c #C3A254",
":. c #C9A454",
">. c #CCAB55",
",. c #C2A55A",
"<. c #CAA759",
"1. c #C4A85D",
"2. c #CCAD5C",
"3. c #D0AE5A",
"4. c #D3B45C",
"5. c #D7BC5E",
"6. c #D9BA5C",
"7. c #D3B256",
"8. c #C6AC61",
"9. c #C9AE61",
"0. c #CCB265",
"q. c #CEB669",
"w. c #CFBA6C",
"e. c #D2B462",
"r. c #D5B965",
"t. c #D9BE66",
"y. c #D4BB6B",
"u. c #D9BE6D",
"i. c #C1B772",
"p. c #C7BD75",
"a. c #CCBF75",
"s. c #D5BF71",
"d. c #E2C45A",
"f. c #DDC265",
"g. c #DBC26D",
"h. c #CEC379",
"j. c #D6C272",
"k. c #DBC473",
"l. c #DEC976",
"z. c #D2C77B",
"x. c #D2C97E",
"c. c #DECA7A",
"v. c #DEC47C",
"b. c #E3C761",
"n. c #E2C96E",
"m. c #E0C46B",
"M. c #E0CB76",
"N. c #E1CC7A",
"B. c #E5D27D",
"V. c #EAD77C",
"C. c #EDDB7F",
"Z. c #ECD272",
"A. c #DFCC84",
"S. c #DDD281",
"D. c #D8CC9F",
"F. c #E6D582",
"G. c #EAD582",
"H. c #E6D984",
"J. c #EADB86",
"K. c #E8D48A",
"L. c #EBDD89",
"P. c #E1DB8A",
"I. c #EFDF98",
"U. c #E1D59B",
"Y. c #F0DB90",
"T. c #EEE086",
"R. c #EEE38D",
"E. c #F2E68D",
"W. c #F2E88D",
"Q. c #EFE591",
"!. c #EFE892",
"~. c #F0E690",
"^. c #F4EC94",
"/. c #F3EE98",
"(. c #F5F097",
"). c #F8F196",
"_. c #F6F199",
"`. c #F9F39A",
"'. c #F8F49B",
"]. c #F9F69D",
"[. c #E4D8A4",
"{. c #EEDBA1",
"}. c #F6E9A2",
"|. c #FEF0AE",
" X c #ECE3BD",
".X c #F8ECBE",
"XX c #F4E8B4",
"oX c #F1E8C2",
"OX c #FBF2C9",
"+X c #F2ECD5",
"@X c #FFFAE2",
/* pixels */
"                                                                ",
"                                                                ",
"                                                                ",
"                                                                ",
"                                                                ",
"                |.      ) ^ [ } | } ] ^ H                       ",
"                oXP { B.P.^._.'.}.].].!.P.h.(                   ",
"              D.+XU.Q.F.e.J.).).].].].C.t.^./.x.(               ",
"          I.[.oX@XOX}.F.m.C.^.^._.W./.B.y.B.).J.Q.| y           ",
"          / A.{..XXXK.u.L.T.^.`.R.j.R.^.E.g.B.M.F.N.A.y         ",
"        t ,.B.u.Y.u.v.N.R._._.^.R.H.L.!.^.J.k.k.k.n.`.h.y       ",
"      > Q u.2.e.Z.q.N.~.)./.^.R.H.B.k.s.q.k.).H.k.M.k.R.i.      ",
"      4 ` u.9.e.b.s.H.`.^.W.H.H.F.k.w.9.' Q C.'.N.u.k.J./.^     ",
"    ; z g.0.2.o.4.9.R._.^.M.c.H.c.8.8.1.~ x 5.].^.N.n.g.E.x.    ",
"    X I k.<.T R ;.1.J.^.E.v.y.c.s.,.y.' Q Q t.`.].B.<.e.L./.L   ",
"    o z ;.! R T Q _ s.L.L.H.k.j.0.,.z.H.T.R.^./.`.^.y.y.R.T.{   ",
"  ; % W ,.l.9.z I Q _ q.N.c.j.q.1._ ~ _ g.R.!.(.(.).W.G.M.e.p.  ",
"  ; & b t.k.x 2 e x Q Q _ ,.2.1._ U e % + ` W.!.^.^.M.H.t.k.S.  ",
"  : M e.:.j.b % 2 e U Q Q ~ ` _ T x q o O 5 g.Q.W.^.V.l.B.L.h.u ",
"  : h 3.O.;.Q $ # U j.y.,.Q Q T z w E = 5 p $.L.R.Q.L.B.6.k.h.  ",
"  > g 4.7.r.k.% . 3 q.y.9.R x z 2 8 e.W 7 f @.F.L.R.J.u.m.J.i.  ",
"    a V S r.;.5 O O R 9._ Q l = # 8 :.h f B $.B.H.l.g.5.y.R.(   ",
"    - C A S o.M 0 O 6 O.Q I 2 $ O & 7 f B V 2.l.N.k.:.r.l.B.y   ",
"    : k +.:.:.5.3.5 + 7 v w % O @ 7 f B V W y.j.N.B.<.:.c.{     ",
"      - F 4.X.2.3.E l = @ 6 m 6 7 j v M o.9.w.e.k.<.9.k.s.t     ",
"        s -.e.S S 4.k.r.0 e e g g j R o.,.N.k.r.2.X.u.k.L       ",
"        < N d.t.X.%.f.B.;.g._ # $ q y.r.9.B.f.;.>.n.j.K         ",
"          , g *.d.&.3.r.#.4.>.% O q r.<.>.y.<.3.k.1.J           ",
"              d Z =.f.n.t.:.S a q 0 ..>.j.j.y.,.Y r             ",
"                1 d k C &.6.D a 5 & T 1.T 3 3 1                 ",
"                    : * 9 p 6 6 & + . o X ;                     ",
"                            ; ; ; ;                             "
};
