/* XPM */
static char *ff2b0db8e01c4a96f7827c9e83d498fdNo4lajpVVCO3r2xf[] = {
/* columns rows colors chars-per-pixel */
"32 32 59 1 ",
"  c None",
". c #6B4220",
"X c #6F4B21",
"o c #764B24",
"O c #7D4E25",
"+ c #755125",
"@ c #7B5225",
"# c #7C5428",
"$ c #804F24",
"% c #845325",
"& c #885527",
"* c #835825",
"= c #885B27",
"- c #845428",
"; c #8B5629",
": c #845A2A",
"> c #8C5B2A",
", c #915C2C",
"< c #995E2F",
"1 c #8B612C",
"2 c #94622D",
"3 c #99652E",
"4 c #96682F",
"5 c #9A692F",
"6 c #8E6730",
"7 c #956530",
"8 c #9B6431",
"9 c #956931",
"0 c #9C6B32",
"q c #9E7135",
"w c #9D773C",
"e c #A36D34",
"r c #A47336",
"t c #A87437",
"y c #A57937",
"u c #A87C37",
"i c #A57638",
"p c #AA7539",
"a c #A47B3B",
"s c #AC7C3B",
"d c #B17E3D",
"f c #A6803E",
"g c #AE823C",
"h c #B3843E",
"j c #B4883F",
"k c #AF8241",
"l c #AE8B46",
"z c #B58641",
"x c #B98642",
"c c #B68A42",
"v c #BA8C44",
"b c #B08D48",
"n c #BF8F48",
"m c #BB9246",
"M c #BD9449",
"N c #BF9A4C",
"B c #C19549",
"V c #C19C4D",
"C c #C3A150",
/* pixels */
"*@*=$O$$O$%%&&>>,,344550erryggyy",
"**=1*$$$%&&&&&&=2>>250tyuuuggggg",
"=>>,=&>>>&&    oi    @1quhjjjjjj",
">>12,>>O@:     +g     wq46gmVjMj",
"122322    @1   +g   gg    +fBBBj",
"22255       #1a9ghhg       1jVBB",
"345505rrytuggqssgjcmMMMNVVVjBjBN",
"255r5234449q94azjjawaaaafffgjBVj",
"55yyu7iaiaaak.9ccmlabbblllw#cmmm",
"qyqgzrgzcccmboqvvMBvNCNNVCb*cvmv",
"rrugzthjjjcmMoqvvMNvCCNNNNc*cvvc",
"ryuucujvbmmbMoqvvMMvNNNNNNl=cvvz",
"rupgjdjxmjbMM+qvvmmxNNMMMMk1cccg",
"puggvdjxmmvmm@icbmBcNMMnvnk>czcg",
"udggvshvccmvmOiccnvzNMvvvms:gzhs",
"uhghvdjjcmvvv#izzvvcMMvcvvs:ghgs",
"sgghnskzzvzzc$izzxxzzzzzzzi-sgui",
"ssggxxxzzxxvxiszcvvxvzvxzzziiste",
"gshghzzzzzzzzzzzzzzzhhzhzzzgrrq0",
"gssdstssskssssdzhditiiuiiii0eee4",
"ddshp8qieqqee;idsp<7779999>&4553",
"sdshxdzzzczzx,essddpskssssr&<35<",
"sdgdxdjjjhzzj,edssptsssttte;22<,",
"sdsdxdhzhzkzj,epspptttsrrr0&,,2,",
"ddsdhdhjhhhhh<tpdptrtttteee$,,,;",
"sdsdxdhhxddhd<tpppeettteee5;,,,;",
"hdsdxdjjhhddd<tppteeteeeer4;;,,;",
"hhddxdjhhhxdh<tpptertttee03;,,,;",
"hhddxddxddddd8pdpttetteee83;,,,;",
"hxddxxxxxxxxdpdddpppppteeee<,,,;",
"xvdxxxxxxxdddhdddpdpppttee8e2,,,",
"xvxxBxxBxxxBdBhdddddptttteee3<<,"
};
