/* XPM */
static char *_dcbbc297fd14df595293b2f06e04408pUFFn2WwcaqzO72e[] = {
/* columns rows colors chars-per-pixel */
"32 32 53 1 ",
"  c #0F1110",
". c #111312",
"X c #121413",
"o c #131514",
"O c #141615",
"+ c #151716",
"@ c #161817",
"# c #171918",
"$ c #181A19",
"% c #191B1A",
"& c #1A1C1B",
"* c #1B1D1C",
"= c #1C1E1D",
"- c #1D1F1E",
"; c #1E201F",
": c #1F2120",
"> c #202221",
", c #212322",
"< c #222423",
"1 c #232524",
"2 c #242625",
"3 c #252726",
"4 c #262827",
"5 c #272928",
"6 c #282A29",
"7 c #292B2A",
"8 c #2A2C2B",
"9 c #2B2D2C",
"0 c #2C2E2D",
"q c #2D2F2E",
"w c #2E302F",
"e c #2F3130",
"r c #303231",
"t c #313332",
"y c #323433",
"u c #333534",
"i c #343635",
"p c #353736",
"a c #363837",
"s c #373938",
"d c #383A39",
"f c #393B3A",
"g c #3A3C3B",
"h c #3B3D3C",
"j c #3C3E3D",
"k c #3D3F3E",
"l c #3E403F",
"z c #3F4140",
"x c #404241",
"c c #414342",
"v c #424443",
"b c #434544",
"n c #444645",
/* pixels */
"##&&=;::>>31>>>>33<<<>>>=&$##@o.",
"@#$$*=;:;::>>1<<431<>>>>=*$$#@OX",
"$$&&=;>>=;:>1<33433<><<>:=&$$#OO",
"***=;>13:;;><3335431<<<<:=&$$$@O",
"*=**=><33>>>11137443<111>;===&#O",
"&$$$*=><841>333>77433111>>===*$#",
"=*&&*:13051<3753774311311>;===$$",
">:;=:<4707115774775433133>:=;=&$",
"#37:*>3188734905987775773<>;==$$",
"X:4<>475897470079777577753<>>;*$",
" *><190770989ew799877778743<<>==",
"o$;:30077000ere800988889873<<>;=",
"=>><379870w0ryr90000899977331<;=",
"177775808000wyy0e000900097333>>=",
";39w857890970uywww00000ww97433>>",
"O;8e931790979ryeeww00000r077733>",
"=>7wr074r090erewee0900we0we05113",
"1370ew098770ryyrw000000e0ww0531<",
"88090wrr999wryrr0weerwe0www05311",
"00000wrruuuuyrw0errrrrewww007331",
"8900wewedggdayewrriiiuyrrrw0873<",
"570erew0sdhhdsiiiaiasiiiurew0943",
"779werrruahjhdddddsdsdddiirrr074",
"7800rryuyahjgdddhgddddghairrrw85",
"078riiihiadhjjdujjdisjhahdure009",
"y00uaaagdddjjjdshhhashgigsirrw97",
"suyagdsdljghjlhhagjgdddassiuye95",
"ddsdgdssjjjjzjhdudjlddsdaiiair95",
"gdgddgsiggjzczgsudjcjdsdaaasay07",
"dggghhdiddjcbcjdsdjzzhdhsssdsie8",
"sghdjjhihhjcbbcjjdgzcjjjgddgdare",
"ahjgjcldjljzvnbvzddzbzjjjhdgdsur"
};
