/* XPM */
static char *_2b6cd96f3594043cd319e510e5c3137x3YQEOCtpy5kNkxa[] = {
/* columns rows colors chars-per-pixel */
"32 32 224 2 ",
"   c #5B3B24",
".  c #6E4A2F",
"X  c #694125",
"o  c #734626",
"O  c #744B2E",
"+  c #704729",
"@  c #6B4A33",
"#  c #6E4E39",
"$  c #744E32",
"%  c #7C4F30",
"&  c #75543B",
"*  c #7C563C",
"=  c #7E563A",
"-  c #7F5D45",
";  c #7D634C",
":  c #825433",
">  c #83573B",
",  c #8B5C3C",
"<  c #855938",
"1  c #9A5F3F",
"2  c #8E643C",
"3  c #98643D",
"4  c #875F43",
"5  c #846345",
"6  c #8D6345",
"7  c #85624A",
"8  c #8B6449",
"9  c #8C694C",
"0  c #8B6946",
"q  c #926444",
"w  c #9C6A45",
"e  c #916449",
"r  c #9C664B",
"t  c #956C4B",
"y  c #9B6B4B",
"u  c #956945",
"i  c #9C704E",
"p  c #97704F",
"a  c #896851",
"s  c #936C54",
"d  c #9C6D52",
"f  c #8F735E",
"g  c #947154",
"h  c #9B7353",
"j  c #93745A",
"k  c #9B735A",
"l  c #9C7A5B",
"z  c #A36944",
"x  c #A26C4D",
"c  c #A26644",
"v  c #A3704D",
"b  c #AB744B",
"n  c #A77047",
"m  c #B1794D",
"M  c #A66F50",
"N  c #A47453",
"B  c #AB7454",
"V  c #A67951",
"C  c #AD7A54",
"Z  c #A67659",
"A  c #A57A5C",
"S  c #AC7C5B",
"D  c #B27B54",
"F  c #B97F55",
"G  c #B37B5A",
"H  c #B37857",
"J  c #9E7A62",
"K  c #9A7E69",
"L  c #957965",
"P  c #A57E66",
"I  c #B67D60",
"U  c #AD815C",
"Y  c #B98357",
"T  c #B5815D",
"R  c #BA845C",
"E  c #B7895E",
"W  c #9E826D",
"Q  c #A48266",
"!  c #AD8163",
"~  c #AC856B",
"^  c #AD896E",
"/  c #B38363",
"(  c #BC8363",
")  c #BD8A63",
"_  c #BA876A",
"`  c #B2896C",
"'  c #BC8C6C",
"]  c #B68866",
"[  c #AC8B70",
"{  c #A58B78",
"}  c #B38C72",
"|  c #B88E75",
" . c #B79277",
".. c #BB9174",
"X. c #BB967C",
"o. c #B79379",
"O. c #C18A5D",
"+. c #C2875D",
"@. c #C38B63",
"#. c #C88E64",
"$. c #C48E6B",
"%. c #C88D6B",
"&. c #C28767",
"*. c #C49064",
"=. c #CA9567",
"-. c #C3916C",
";. c #CC946C",
":. c #CD9A6D",
">. c #D39A6F",
",. c #CA8F71",
"<. c #C49574",
"1. c #CA9472",
"2. c #CE9972",
"3. c #C3967A",
"4. c #C49A7C",
"5. c #CB9D7B",
"6. c #D29C75",
"7. c #D29D79",
"8. c #D49A75",
"9. c #CEA07F",
"0. c #D5A076",
"q. c #D5A27B",
"w. c #DAA37C",
"e. c #BA9B86",
"r. c #B79985",
"t. c #AC9689",
"y. c #CB9F81",
"u. c #C59C80",
"i. c #CCA184",
"p. c #C2A38F",
"a. c #CCA588",
"s. c #C4A086",
"d. c #DBA683",
"f. c #D1A588",
"g. c #D6A98D",
"h. c #DBAC8B",
"j. c #DDB087",
"k. c #C5A896",
"l. c #CEAB93",
"z. c #C5AA99",
"x. c #CCAE9B",
"c. c #C6A793",
"v. c #D9AF93",
"b. c #D1B29E",
"n. c #DCB69D",
"m. c #E3AB85",
"M. c #E0AF8C",
"N. c #E0A680",
"B. c #E9B28A",
"V. c #E4B696",
"C. c #E9BB99",
"Z. c #F0BD90",
"A. c #CFB4A3",
"S. c #CDBBA7",
"D. c #D2B6A4",
"F. c #DBB9A3",
"G. c #D4BCA9",
"H. c #D9BDAC",
"J. c #D3B8A7",
"K. c #E5BDA3",
"L. c #D7C0AE",
"P. c #DFC3B2",
"I. c #DFCAB7",
"U. c #E8C7AC",
"Y. c #F5C9A9",
"T. c #EBCDBA",
"R. c #E4C7B4",
"E. c #EDD1BC",
"W. c #F6D3B9",
"Q. c #FED6BA",
"!. c #FFDCBE",
"~. c #FAD3B4",
"^. c #FFDDC4",
"/. c #F6DCCB",
"(. c #F6D8C1",
"). c #F0DCD3",
"_. c #FFE2C5",
"`. c #FFE4C9",
"'. c #F1E0CC",
"]. c #EDE4DD",
"[. c #FDE3D2",
"{. c #F0E5DD",
"}. c #FAE7D8",
"|. c #F6EBDF",
" X c #FFECDD",
".X c #F8E4D3",
"XX c #FFF2D4",
"oX c #FFF4DA",
"OX c #DEE8EB",
"+X c #E3E5E3",
"@X c #EAE5E2",
"#X c #EDE9E5",
"$X c #E5E5E9",
"%X c #E5EDED",
"&X c #EBECED",
"*X c #E7E7E7",
"=X c #F1E7E0",
"-X c #F4E9E4",
";X c #FEEEE2",
":X c #F3EEEB",
">X c #FBEFE9",
",X c #FFF2E5",
"<X c #F4F2ED",
"1X c #FEF4EB",
"2X c #FFFAEE",
"3X c #E5ECF2",
"4X c #EBEEF3",
"5X c #E7EEF9",
"6X c #E5F1F3",
"7X c #ECF3F4",
"8X c #EDF3FA",
"9X c #EFF8F7",
"0X c #F4F2F3",
"qX c #FCF4F2",
"wX c #FFFDF5",
"eX c #FFFBF4",
"rX c #F4F5FA",
"tX c #FBF7F9",
"yX c #F4FBFD",
"uX c #FFFEFA",
"iX c #F9FEFF",
"pX c #FEFEFE",
"aX c #FCFCFD",
"sX c #F4F9F5",
/* pixels */
"yX*XiXiX9XyX9XiX9X%X7XiXyXOX6XiXiX&X*XaXaX0X-X:XqXtX0X4XaXyX5X5X",
"*X&XuXsX+X+X%XiX7X%X7XiXyX6X6XyXaXsX0XqXtXeXqX0XaX1X+X0XaXaXrX5X",
"wXwXwX<XwXuX:XsX:X<X<X0X<X<X&X<X:XqXqX-X-X1XqX1X>X-XqXeX:X&XrXrX",
"wX,X>X].wX2X|.{.wXwXwX1X2XwXwX1X1XeXeX>X;X,X2X1X).>XeXeX-X>XaXaX",
"2X;X>X X X,XoX2X}. X X.X|.,X,X X;X X;X,X X[.[. X,X[..X;X>X{.-X>X",
"E.o.{ K f W W { e.p.c.p.c.b.F.b.b.x.b.F.n.c.l.F.!.x.e.D.J.t.t.).",
"^.j 4 a * 7 9 8 k P ` | ` ^ ~ ~ ^ } } } ` ....<.3.s. .X.r.7 L `.",
"`.P <.g.P ! i.g.3.i.h.V.h.5.' ' 3.f.i...<.M.V.h.<.Y.V.s.K.v.l. X",
"Q.q d y y y N T $.' &.$.=.&.F G _ ' <.' -.2.8.8.6.1.5.i.f. ..._.",
"!.e N x V v N B d.m.N.7.>.>.8.2.d.7.2.w.7.;.;.8.8.:.2.1.q.<.4.`.",
"Y.< t h U U U U 2.w.7.+.+.+.#.O.q.-.&.6.>.Y F #.@.#.$./ ' ' 3.!.",
"_.h / ' 4.9.:.:.7.w.0.:.O.O.#.=.-.@.@.:.;.@.@.=.w.m.m.6.h.v.V.XX",
"~.2 p p i t w U T U E *.E Y Y =.) -.=.@.@.#.#.R ;.2.2.) <.5.9.Q.",
"W.5 l g t 0 0 U V m ) :.>.=.=.0.M.C.C.w.w.M.m.8.7.6.q.<.9.9.9.!.",
"R.& ; 5 0 2 0 U 2 V E E *.:.=.E -.<.$.T G @.@.R 2.@.) ] <.}  .W.",
"_.a g g Q l l i U 9.j.:.:.Z.B.E 2.<.-.;.8.8.7.m.M.7.<.3.f.4.a.XX",
"U.& 5 * 4 5 6 6 y x S ) ;.#.R F Y ) -.@.&.%.,.%.8.I Z J | } r.^.",
"W.@ . $ 8 h A V ' ) ) R B b F #.R m H >.8.%.&.,.I B M e d s [ ^.",
"U.X @ = 8 4 , y , q b H D b b m Y m m @.&.m B I x x r 4 8 k [ ^.",
"Q.9 } 4.' q , x 3 z Y w.B.m.>.+.#.0.w.#.H H F I ,.%.I P y.n.C. X",
"Y.= A ` U , < y q w b G Y m b m b Y R b z z c c G G S N ..a.a.!.",
"^.% > q S P S ' V R @.) b 3 n R *.b b ;.N.>.H B G ( _ S I ! 4.XX",
"~.+ X o q y y w , w S R b w C @.E w 3 ( 2.&.B x x Z / A h t Q _.",
"^.8 t e t e < o % o o : q v S / T / U V N S B y _ I ' ..<.Q ~ !.",
"XX5 - k 9 s 8 X % + $ , 6 6 t A U h t h A Z d s k u.| o.u.j Q oX",
"T.4 @ #   @ & # & & - 7 7 7 s l a j [ X.^ s s P J P 7 - f ; K (.",
"/.k.k.k.e.z.z.J.x.D.H.J.D.G.R.R.L.L.I././.R.H.R.(.R.A.A.L.S.S.'.",
">X X1X1XwX2X>X1X>X2XeX,X>X2X2X,X2X,X,X1XeXqX1X1X:X>XqXeX2X2X,X-X",
"uXqXqX).1XwX-X>XqXeXqX>X>XuXqX-X+XwXwX<X].-XeXtX-X-X1X1X].<XwXwX",
"uXtXqX@X0XuX#X0XtXqXqX0XtXaXtX&X%XyXiX0X0XtXaX:X>X<XtXqX*X<XuXuX",
"&X$XaXaXtXaX:XaXrX8XrXiXrXrX8XyXyX6XOX7XiXaXrX$XtXtXaXiXiX9X%X%X",
"0X&XaXaX4X4X4XaX4X4XaXaXrX3X8XiXyX6X3XiXiX3X4XaXaXrX$X%XiXiX6X6X"
};
